<?xml version="1.0" encoding="UTF-8" standalone="no"?>
<svg
   xmlns:dc="http://purl.org/dc/elements/1.1/"
   xmlns:cc="http://creativecommons.org/ns#"
   xmlns:rdf="http://www.w3.org/1999/02/22-rdf-syntax-ns#"
   xmlns:svg="http://www.w3.org/2000/svg"
   xmlns="http://www.w3.org/2000/svg"
   xmlns:sodipodi="http://sodipodi.sourceforge.net/DTD/sodipodi-0.dtd"
   xmlns:inkscape="http://www.inkscape.org/namespaces/inkscape"
   version="1.1"
   width="841.88977"
   height="595.27557"
   id="svg79"
   viewBox="0 0 841.88977 595.27557"
   sodipodi:docname="pasta.cdr.svg"
   inkscape:version="0.92.5 (2060ec1f9f, 2020-04-08)">
  <metadata
     id="metadata85">
    <rdf:RDF>
      <cc:Work
         rdf:about="">
        <dc:format>image/svg+xml</dc:format>
        <dc:type
           rdf:resource="http://purl.org/dc/dcmitype/StillImage" />
        <dc:title></dc:title>
      </cc:Work>
    </rdf:RDF>
  </metadata>
  <defs
     id="defs83" />
  <sodipodi:namedview
     pagecolor="#ffffff"
     bordercolor="#666666"
     borderopacity="1"
     objecttolerance="10"
     gridtolerance="10"
     guidetolerance="10"
     inkscape:pageopacity="0"
     inkscape:pageshadow="2"
     inkscape:window-width="1360"
     inkscape:window-height="714"
     id="namedview81"
     showgrid="false"
     inkscape:zoom="1.1213442"
     inkscape:cx="255.2912"
     inkscape:cy="323.94902"
     inkscape:window-x="0"
     inkscape:window-y="27"
     inkscape:window-maximized="1"
     inkscape:current-layer="svg79" />
  <path
     d="M 0,0 V 595.2756 H 841.8898 V 0 Z"
     style="fill:#000200;fill-rule:evenodd;stroke:#1b1918;stroke-width:0.56690001;stroke-linecap:butt;stroke-linejoin:miter;stroke-dasharray:none"
     id="path2"
     inkscape:connector-curvature="0" />
  <path
     d="m 181.87165,350.81851 c -22.1317,21.22954 -48.87154,33.90682 -71.52589,33.90682 -12.138795,0 -22.178001,-3.77707 -29.033,-10.92249 -17.311133,-18.05129 -10.894971,-53.33204 13.370028,-84.29947 4.722271,3.4034 9.757882,6.55155 15.055382,9.39612 18.05916,9.70025 37.955,15.04583 56.01854,15.04583 24.27162,0 43.17991,-9.29017 51.87789,-25.48208 0.16089,-0.2975 0.3102,-0.60005 0.46277,-0.90194 -3.03209,20.24199 -15.72195,43.59157 -36.22572,63.25721 z m 36.61018,-78.23619 c -0.53703,4.92742 -1.94364,9.64845 -4.29624,14.02839 -7.9958,14.88304 -25.64476,23.418 -48.42888,23.418 -17.42955,0 -36.66478,-5.17796 -54.16444,-14.57823 -5.08437,-2.72897 -9.91618,-5.74297 -14.449704,-8.99717 3.456094,-4.1649 7.232494,-8.23813 11.327064,-12.16429 22.13407,-21.23044 48.87413,-33.90503 71.52343,-33.90503 12.14171,0 22.18114,3.77651 29.03333,10.92227 5.40288,5.63129 8.49485,12.94265 9.45544,21.27606 z M 65.553173,251.70949 c -9.135018,-16.98083 -10.285026,-33.55664 -3.238809,-46.67601 7.993885,-14.88304 25.644875,-23.41845 48.428546,-23.41845 17.4273,0 36.66489,5.1765 54.16477,14.57554 27.79109,14.92663 46.86801,37.81512 52.26202,59.52148 -1.48088,-2.58213 -3.25386,-4.96461 -5.3166,-7.11622 -7.61043,-7.93445 -18.62506,-12.12766 -31.86004,-12.12766 -23.63663,0 -51.38839,13.08308 -74.23554,34.99504 -4.22198,4.05199 -8.151849,8.28565 -11.765905,12.65155 -12.20283,-9.34994 -22.015764,-20.46647 -28.438442,-32.40527 z m 156.874147,20.95473 c 1.10124,-10.77925 -1.5975,-22.62189 -8.03501,-34.58654 -9.63857,-17.91332 -26.55378,-34.01423 -47.63266,-45.33624 -18.05702,-9.70025 -37.95309,-15.0419 -56.01674,-15.0419 -24.27129,-3.4e-4 -43.179806,9.28714 -51.880481,25.47983 -3.363966,6.26371 -5.035613,13.21173 -5.033029,20.56837 0.0031,9.45892 2.774132,19.59329 8.274084,29.81809 6.670746,12.39462 16.826121,23.91975 29.434645,33.59607 -10.247389,13.08477 -17.626947,27.21934 -21.322231,41.10123 -5.32098,20.0037 -2.384954,37.13934 8.272623,48.25081 7.610211,7.93277 18.625396,12.12576 31.857239,12.12576 23.63943,0 51.39097,-13.08185 74.23801,-34.99572 17.68818,-16.96588 30.31299,-37.13687 35.54162,-56.79835 2.31114,-8.68786 3.06366,-16.83556 2.30193,-24.18141 z"
     style="fill:#ffcb00;fill-rule:evenodd;stroke-width:1.12349403"
     id="path70"
     inkscape:connector-curvature="0"
     inkscape:export-xdpi="22.75527"
     inkscape:export-ydpi="22.75527" />
  <path
     d="M 0,132.0355 V 457.49 H 841.8898 V 132.0355 Z"
     style="fill:none;stroke:#ffffff;stroke-width:0.56690001;stroke-linecap:butt;stroke-linejoin:miter;stroke-dasharray:none"
     id="path77"
     inkscape:connector-curvature="0" />
  <text
     xml:space="preserve"
     style="font-style:normal;font-weight:normal;font-size:44.93976212px;line-height:1.25;font-family:sans-serif;letter-spacing:0px;word-spacing:0px;fill:#ff0000;fill-opacity:1;stroke:none;stroke-width:1.12349403"
     x="243.80869"
     y="241.06726"
     id="text4621"
     inkscape:export-xdpi="22.75527"
     inkscape:export-ydpi="22.75527"><tspan
       sodipodi:role="line"
       id="tspan4619"
       x="243.80869"
       y="241.06726"
       style="font-style:normal;font-variant:normal;font-weight:normal;font-stretch:normal;font-family:'Abyssinica SIL';-inkscape-font-specification:'Abyssinica SIL';fill:#ffcb00;stroke-width:1.12349403">V Colóquio</tspan><tspan
       sodipodi:role="line"
       x="243.80869"
       y="297.73047"
       id="tspan4625"
       style="font-style:normal;font-variant:normal;font-weight:normal;font-stretch:normal;font-family:'Abyssinica SIL';-inkscape-font-specification:'Abyssinica SIL';fill:#ffcb00;stroke-width:1.12349403">de Matemática</tspan><tspan
       sodipodi:role="line"
       x="243.80869"
       y="354.39368"
       id="tspan4629"
       style="font-style:normal;font-variant:normal;font-weight:normal;font-stretch:normal;font-family:'Abyssinica SIL';-inkscape-font-specification:'Abyssinica SIL';fill:#ffcb00;stroke-width:1.12349403">da Região Sul</tspan></text>
</svg>
